<?xml version="1.0" encoding="UTF-8"?>
<svg xmlns="http://www.w3.org/2000/svg" width="128" height="128" viewBox="0 0 128 128" shape-rendering="crispEdges">
  <rect x="27" y="3" width="16" height="5" fill="#000000"/>
  <rect x="101" y="3" width="16" height="5" fill="#000000"/>
  <rect x="27" y="8" width="26" height="6" fill="#000000"/>
  <rect x="91" y="8" width="26" height="6" fill="#000000"/>
  <rect x="27" y="14" width="32" height="5" fill="#000000"/>
  <rect x="64" y="14" width="16" height="5" fill="#000000"/>
  <rect x="85" y="14" width="32" height="5" fill="#000000"/>
  <rect x="27" y="19" width="90" height="11" fill="#000000"/>
  <rect x="32" y="30" width="80" height="5" fill="#000000"/>
  <rect x="37" y="35" width="70" height="5" fill="#000000"/>
  <rect x="32" y="40" width="80" height="6" fill="#000000"/>
  <rect x="32" y="46" width="16" height="5" fill="#000000"/>
  <rect x="59" y="46" width="26" height="5" fill="#000000"/>
  <rect x="96" y="46" width="16" height="5" fill="#000000"/>
  <rect x="32" y="51" width="11" height="5" fill="#000000"/>
  <rect x="53" y="51" width="6" height="11" fill="#000000"/>
  <rect x="64" y="51" width="16" height="11" fill="#000000"/>
  <rect x="85" y="51" width="6" height="11" fill="#000000"/>
  <rect x="101" y="51" width="11" height="5" fill="#000000"/>
  <rect x="16" y="56" width="27" height="6" fill="#000000"/>
  <rect x="101" y="56" width="27" height="6" fill="#000000"/>
  <rect x="37" y="62" width="11" height="5" fill="#000000"/>
  <rect x="59" y="62" width="26" height="5" fill="#000000"/>
  <rect x="96" y="62" width="11" height="5" fill="#000000"/>
  <rect x="32" y="67" width="37" height="6" fill="#000000"/>
  <rect x="75" y="67" width="37" height="6" fill="#000000"/>
  <rect x="27" y="73" width="10" height="5" fill="#000000"/>
  <rect x="48" y="73" width="48" height="5" fill="#000000"/>
  <rect x="107" y="73" width="10" height="5" fill="#000000"/>
  <rect x="21" y="78" width="11" height="5" fill="#000000"/>
  <rect x="53" y="78" width="38" height="11" fill="#000000"/>
  <rect x="112" y="78" width="11" height="5" fill="#000000"/>
  <rect x="5" y="89" width="11" height="5" fill="#000000"/>
  <rect x="48" y="89" width="48" height="5" fill="#000000"/>
  <rect x="0" y="94" width="21" height="5" fill="#000000"/>
  <rect x="43" y="94" width="58" height="5" fill="#000000"/>
  <rect x="0" y="99" width="5" height="11" fill="#000000"/>
  <rect x="16" y="99" width="5" height="11" fill="#000000"/>
  <rect x="37" y="99" width="70" height="16" fill="#000000"/>
  <rect x="16" y="110" width="11" height="5" fill="#000000"/>
  <rect x="21" y="115" width="86" height="6" fill="#000000"/>
  <rect x="43" y="121" width="58" height="5" fill="#000000"/>
  <rect x="48" y="46" width="11" height="5" fill="#faf20d"/>
  <rect x="85" y="46" width="11" height="5" fill="#faf20d"/>
  <rect x="43" y="51" width="10" height="11" fill="#faf20d"/>
  <rect x="59" y="51" width="5" height="11" fill="#faf20d"/>
  <rect x="80" y="51" width="5" height="11" fill="#faf20d"/>
  <rect x="91" y="51" width="10" height="11" fill="#faf20d"/>
  <rect x="48" y="62" width="11" height="5" fill="#faf20d"/>
  <rect x="85" y="62" width="11" height="5" fill="#faf20d"/>
  <rect x="69" y="67" width="6" height="6" fill="#ffffff"/>
</svg>